<svg viewBox="0 0 240 120" xmlns="http://www.w3.org/2000/svg" preserveAspectRatio="xMidYMid slice">
  <defs>
    <linearGradient id="sky" x1="0%" y1="0%" x2="0%" y2="100%">
      <stop offset="0%" stop-color="#1a2945" />
      <stop offset="55%" stop-color="#0a1228" />
      <stop offset="100%" stop-color="#02050f" />
    </linearGradient>
    <radialGradient id="nebula" cx="50%" cy="15%" r="65%">
      <stop offset="0%" stop-color="#ffb086" stop-opacity="0.55" />
      <stop offset="30%" stop-color="#a8567f" stop-opacity="0.3" />
      <stop offset="65%" stop-color="#2a4f6e" stop-opacity="0.15" />
      <stop offset="100%" stop-color="#000" stop-opacity="0" />
    </radialGradient>
    <radialGradient id="tealglow" cx="85%" cy="55%" r="45%">
      <stop offset="0%" stop-color="#2dd4bf" stop-opacity="0.22" />
      <stop offset="100%" stop-color="#000" stop-opacity="0" />
    </radialGradient>
    <linearGradient id="pillar" x1="50%" y1="0%" x2="50%" y2="100%">
      <stop offset="0%" stop-color="#6b4530" />
      <stop offset="35%" stop-color="#2c180e" />
      <stop offset="100%" stop-color="#070306" />
    </linearGradient>
    <radialGradient id="pillarTop1" cx="50%" cy="50%" r="50%">
      <stop offset="0%" stop-color="#ffb27a" stop-opacity="0.85" />
      <stop offset="100%" stop-color="#ff7d3c" stop-opacity="0" />
    </radialGradient>
  </defs>

  <rect width="240" height="120" fill="url(#sky)" />
  <rect width="240" height="120" fill="url(#nebula)" />
  <rect width="240" height="120" fill="url(#tealglow)" />

  <g fill="white">
    <circle cx="18" cy="12" r="0.7" opacity="0.9" />
    <circle cx="34" cy="6" r="0.4" opacity="0.7" />
    <circle cx="62" cy="14" r="0.85" opacity="1" />
    <circle cx="80" cy="5" r="0.5" opacity="0.8" />
    <circle cx="98" cy="20" r="0.5" opacity="0.6" />
    <circle cx="124" cy="9" r="0.7" opacity="0.9" />
    <circle cx="145" cy="14" r="0.4" opacity="0.5" />
    <circle cx="168" cy="6" r="0.65" opacity="0.85" />
    <circle cx="190" cy="20" r="0.5" opacity="0.7" />
    <circle cx="208" cy="10" r="0.75" opacity="0.95" />
    <circle cx="224" cy="22" r="0.5" opacity="0.6" />
    <circle cx="8" cy="34" r="0.5" opacity="0.7" />
    <circle cx="46" cy="42" r="0.4" opacity="0.55" />
    <circle cx="88" cy="38" r="0.5" opacity="0.6" />
    <circle cx="158" cy="40" r="0.4" opacity="0.5" />
    <circle cx="218" cy="50" r="0.5" opacity="0.7" />
    <circle cx="28" cy="62" r="0.45" opacity="0.6" />
    <circle cx="232" cy="70" r="0.4" opacity="0.5" />
    <circle cx="14" cy="88" r="0.4" opacity="0.5" />
    <circle cx="208" cy="92" r="0.4" opacity="0.5" />
    <circle cx="150" cy="68" r="0.4" opacity="0.5" />
    <circle cx="76" cy="76" r="0.4" opacity="0.5" />
  </g>

  <path d="M 36 120 L 40 84 L 36 72 L 42 56 L 50 50 L 58 56 L 60 72 L 56 86 L 60 102 L 66 120 Z"
        fill="url(#pillar)" />
  <ellipse cx="50" cy="51" rx="10" ry="3" fill="url(#pillarTop1)" />

  <path d="M 92 120 L 98 72 L 94 56 L 100 38 L 106 26 L 114 24 L 122 32 L 124 48 L 120 62 L 126 78 L 128 98 L 132 120 Z"
        fill="url(#pillar)" />
  <ellipse cx="110" cy="26" rx="12" ry="3.5" fill="url(#pillarTop1)" />

  <path d="M 168 120 L 172 90 L 168 78 L 174 66 L 182 62 L 190 68 L 192 82 L 188 96 L 194 110 L 198 120 Z"
        fill="url(#pillar)" />
  <ellipse cx="182" cy="63" rx="9" ry="2.8" fill="url(#pillarTop1)" />
</svg>
